<svg id="Layer_5" enable-background="new 0 0 64 64" height="512" viewBox="0 0 64 64" width="512" xmlns="http://www.w3.org/2000/svg"><g><g><g><path d="m27 25-7 8-7-8h4v-18h6v18z" fill="#ffeaa7"/></g><g><path d="m49 4h2.06c6.04 0 10.94 4.9 10.94 10.94 0 1.88-.48 3.7-1.37 5.3s-2.17 2.97-3.77 3.97l-2.86 1.79v-5.59c0-.26.11-.52.29-.7l1-1c.46-.46.71-1.07.71-1.71 0-.55-.22-1.05-.59-1.41-.36-.37-.86-.59-1.41-.59v-2c0-1.1-.9-2-2-2h-7.06c-.64 0-1.23.3-1.61.81l-.31-.22c-1.78-.77-3.02-2.53-3.02-4.59 0-2.76 2.24-5 5-5 1.63 0 3.09.79 4 2z" fill="#656d78"/></g><g><path d="m36 62h-32c-1.105 0-2-.895-2-2v-20c0-1.105.895-2 2-2h32c1.105 0 2 .895 2 2v20c0 1.105-.895 2-2 2z" fill="#cf9e76"/></g><g><path d="m14 38h12v8h-4-4-4z" fill="#b27946"/></g><g><path d="m61.73 37c.18-.66.27-1.34.27-2.03v27.03h-20v-4h10.18c2.26 0 4.23-1.51 4.83-3.68l1.24-4.54z" fill="#b4dd7f"/></g><g><path d="m52 48-.81 3.24c-.11.45-.51.76-.97.76h-8.22v-12.29c0-2.05.58-4.02 1.62-5.71 1.04-1.68 2.54-3.08 4.38-4h1c4 0 5-2 5-2s1.48.37 3.17.79c1.42.35 2.63 1.17 3.48 2.26s1.35 2.46 1.35 3.92c0 .69-.09 1.37-.27 2.03l-3.48 12.78z" fill="#b4dd7f"/></g><g><path d="m58.25 49.78-1.24 4.54c-.6 2.17-2.57 3.68-4.83 3.68h-10.18-4-5c-.83 0-1.58-.34-2.12-.88s-.88-1.29-.88-2.12c0-1.66 1.34-3 3-3h5 4 8.22c.46 0 .86-.31.97-.76l.81-3.24z" fill="#f0d0b4"/></g><g><path d="m54 26v2s-1 2-5 2h-1v-4h-.59c-.9 0-1.77-.36-2.41-1s-1-1.51-1-2.41v-2.59l-3-1c0-3.47 1.45-5.98 2.33-7.19.38-.51.97-.81 1.61-.81h7.06c1.1 0 2 .9 2 2v2c.55 0 1.05.22 1.41.59.37.36.59.86.59 1.41 0 .64-.25 1.25-.71 1.71l-1 1c-.18.18-.29.44-.29.7z" fill="#f0d0b4"/></g></g><g><circle cx="47" cy="15" r="1"/><path d="m57.41 27.819-2.41-.6v-.665l2.39-1.494c3.512-2.195 5.61-5.98 5.61-10.122 0-6.583-5.355-11.938-11.937-11.938h-1.603c-1.1-1.224-2.689-2-4.46-2-3.309 0-6 2.691-6 6 0 2.129 1.126 4.068 2.919 5.142-.892 1.475-1.919 3.82-1.919 6.858v.721l3 1v1.865c0 1.179.459 2.287 1.293 3.121.734.734 1.686 1.157 2.707 1.253v2.447c-3.715 2.106-6 5.994-6 10.302v11.291h-2v-11c0-1.654-1.346-3-3-3h-32c-1.654 0-3 1.346-3 3v20c0 1.654 1.346 3 3 3h32c1.654 0 3-1.346 3-3v-1h2v4h22v-28.032c-.003-3.392-2.301-6.331-5.59-7.149zm-12.41-24.819c2.206 0 4 1.794 4 4h2c0-.702-.128-1.373-.35-2h.413c5.479 0 9.937 4.458 9.937 9.938 0 3.449-1.746 6.6-4.671 8.428l-1.329.83v-3.782l1-1c.645-.645 1-1.502 1-2.414 0-1.304-.836-2.416-2-2.829v-1.171c0-1.654-1.346-3-3-3h-7.059c-.629 0-1.226.214-1.727.568-1.349-.675-2.214-2.047-2.214-3.568 0-2.206 1.794-4 4-4zm0 19.586v-3.307l-2.978-.992c.178-2.827 1.377-4.875 2.114-5.884.188-.256.481-.403.805-.403h7.059c.552 0 1 .448 1 1v3h1c.552 0 1 .448 1 1 0 .378-.147.732-.414 1l-1 1c-.372.372-.586.888-.586 1.414v7.271c-.308.374-1.34 1.315-4 1.315v-2h2v-2h-3.586c-.645 0-1.251-.251-1.707-.707s-.707-1.063-.707-1.707zm-2 17.122c0-3.679 2.002-6.994 5.242-8.708h.758c3.12 0 4.688-1.107 5.397-1.87l2.53.631c2.398.595 4.073 2.739 4.073 5.213 0 .595-.079 1.188-.236 1.765l-3.22 11.805-4.339-1.24 2.765-11.062-1.939-.484-3.812 15.242h-7.219zm7.219 13.292c.92 0 1.718-.623 1.94-1.516l.56-2.239 4.298 1.228-.977 3.58c-.473 1.735-2.06 2.947-3.858 2.947h-19.182c-1.103 0-2-.897-2-2s.897-2 2-2zm-29.219-12v4h-2v-4h-2v4h-2v-6h10v6h-2v-4zm16 19c0 .552-.448 1-1 1h-32c-.552 0-1-.448-1-1v-20c0-.552.448-1 1-1h9v8h14v-8h9c.552 0 1 .448 1 1v11h-4c-2.206 0-4 1.794-4 4s1.794 4 4 4h4zm6 1v-2h9.182c2.698 0 5.079-1.817 5.788-4.42l3.03-11.108v17.528z"/><path d="m29.204 24h-5.204v-18h-8v18h-5.204l9.204 10.519zm-11.204 2v-18h4v18h2.796l-4.796 5.481-4.796-5.481z"/><path d="m5 57h2v2h-2z"/><path d="m13 57h2v2h-2z"/><path d="m9 57h2v2h-2z"/><path d="m5 53h10v2h-10z"/></g></g></svg>